<svg width="614" height="99" viewBox="0 0 614 99" fill="none" xmlns="http://www.w3.org/2000/svg">
<path d="M9 88.5714L25.2631 41.538C29.5809 29.0507 47.2034 28.9454 51.6702 41.3802L65.4252 79.6726C69.8491 91.9883 87.2474 92.042 91.7472 79.7537L106.182 40.3339C110.686 28.0355 128.103 28.1026 132.512 40.4353L146.404 79.2998C150.824 91.6629 168.298 91.6899 172.756 79.3406L186.782 40.4823C191.232 28.1532 208.668 28.1532 213.119 40.4823L227.209 79.5177C231.659 91.8468 249.095 91.8468 253.545 79.5177L267.635 40.4823C272.086 28.1532 289.522 28.1532 293.972 40.4822L308.062 79.5178C312.513 91.8468 329.949 91.8468 334.399 79.5178L348.584 40.22C353.023 27.9212 370.403 27.8811 374.899 40.1592L389.397 79.7537C393.897 92.0419 411.296 91.9883 415.72 79.6726L429.726 40.6797C434.165 28.3235 451.639 28.3235 456.078 40.6797L470.147 79.8459C474.563 92.1415 491.924 92.2217 496.454 79.9674L511.022 40.56C515.574 28.2449 533.049 28.4069 537.372 40.8042L550.761 79.1959C555.085 91.5932 572.559 91.7551 577.112 79.44L605 4" stroke="#F8C615" stroke-width="19"/>
</svg>
