<svg width="573" height="758" viewBox="0 0 573 758" fill="none" xmlns="http://www.w3.org/2000/svg">
<path d="M71 0V65H56.3636V12.2571H27.6364V65H13V0H71Z" fill="black"/>
<path d="M537.5 177C530.765 177 524.678 175.55 519.24 172.651C513.864 169.751 509.631 165.772 506.542 160.713C503.514 155.592 502 149.855 502 143.5C502 137.145 503.514 131.439 506.542 126.38C509.631 121.259 513.864 117.249 519.24 114.349C524.678 111.45 530.765 110 537.5 110C544.235 110 550.291 111.45 555.667 114.349C561.043 117.249 565.276 121.259 568.366 126.38C571.455 131.439 573 137.145 573 143.5C573 149.855 571.455 155.592 568.366 160.713C565.276 165.772 561.043 169.751 555.667 172.651C550.291 175.55 544.235 177 537.5 177ZM537.5 164.229C541.331 164.229 544.792 163.366 547.881 161.638C550.971 159.849 553.381 157.381 555.111 154.235C556.903 151.088 557.799 147.51 557.799 143.5C557.799 139.49 556.903 135.912 555.111 132.765C553.381 129.619 550.971 127.182 547.881 125.454C544.792 123.665 541.331 122.771 537.5 122.771C533.669 122.771 530.208 123.665 527.119 125.454C524.029 127.182 521.588 129.619 519.796 132.765C518.066 135.912 517.201 139.49 517.201 143.5C517.201 147.51 518.066 151.088 519.796 154.235C521.588 157.381 524.029 159.849 527.119 161.638C530.208 163.366 533.669 164.229 537.5 164.229Z" fill="black"/>
<path d="M58.9019 209.737C62.6864 211.047 65.6334 213.105 67.7428 215.911C69.9143 218.654 71 221.866 71 225.545C71 229.536 69.6971 232.996 67.0914 235.927C64.4856 238.858 60.9492 241.103 56.4822 242.662C52.0773 244.221 47.238 245 41.9645 245C37.4975 245 33.0305 244.439 28.5635 243.316C24.1585 242.194 19.9707 240.479 16 238.172L20.6531 227.322C23.5071 229.068 26.6402 230.409 30.0525 231.344C33.5268 232.217 36.9081 232.653 40.1963 232.653C44.6633 232.653 48.3548 231.843 51.2707 230.221C54.2487 228.6 55.7377 226.324 55.7377 223.393C55.7377 220.961 54.714 219.122 52.6667 217.875C50.6813 216.628 47.9515 216.004 44.4772 216.004H28.5635V204.593H43.3604C46.4005 204.593 48.758 203.969 50.4332 202.722C52.1703 201.475 53.0389 199.76 53.0389 197.578C53.0389 195.021 51.7981 193.026 49.3164 191.591C46.8968 190.157 43.7637 189.44 39.9171 189.44C37.0632 189.44 34.1162 189.845 31.0761 190.656C28.0361 191.404 25.1512 192.558 22.4213 194.117L17.8613 182.331C24.7479 178.777 32.1929 177 40.1963 177C45.2837 177 49.9679 177.748 54.2487 179.245C58.5296 180.741 61.9419 182.924 64.4856 185.792C67.0293 188.661 68.3012 191.997 68.3012 195.801C68.3012 198.918 67.4636 201.693 65.7885 204.125C64.1134 206.557 61.8178 208.428 58.9019 209.737Z" fill="black"/>
<path d="M502 286H517.179V328.343L548.669 286H563V351H547.915V308.75L516.425 351H502V286Z" fill="black"/>
<path d="M71 379.257H49.9654V432H34.9407V379.257H14V367H71V379.257Z" fill="black"/>
<path d="M530.453 494C536.275 494 541.315 494.974 545.572 496.923C549.891 498.871 553.209 501.637 555.526 505.22C557.842 508.803 559 513.046 559 517.949C559 522.789 557.842 527.031 555.526 530.677C553.209 534.26 549.891 537.026 545.572 538.974C541.315 540.86 536.275 541.803 530.453 541.803H517.213V560H502V494H530.453ZM529.608 529.357C534.178 529.357 537.652 528.383 540.031 526.434C542.41 524.423 543.6 521.594 543.6 517.949C543.6 514.24 542.41 511.411 540.031 509.463C537.652 507.451 534.178 506.446 529.608 506.446H517.213V529.357H529.608Z" fill="black"/>
<path d="M562 694V758H546.86V731.76H517.14V758H502V694H517.14V719.234H546.86V694H562Z" fill="black"/>
<path d="M35.5 642C28.7646 642 22.678 640.55 17.2402 637.651C11.8642 634.751 7.63142 630.772 4.54178 625.713C1.51393 620.592 0 614.855 0 608.5C0 602.145 1.51393 596.439 4.54178 591.38C7.63142 586.259 11.8642 582.249 17.2402 579.349C22.678 576.45 28.7646 575 35.5 575C42.2354 575 48.2911 576.45 53.6671 579.349C59.0431 582.249 63.2759 586.259 66.3655 591.38C69.4552 596.439 71 602.145 71 608.5C71 614.855 69.4552 620.592 66.3655 625.713C63.2759 630.772 59.0431 634.751 53.6671 637.651C48.2911 640.55 42.2354 642 35.5 642ZM35.5 629.229C39.3312 629.229 42.7916 628.366 45.8812 626.638C48.9708 624.849 51.3808 622.381 53.111 619.235C54.903 616.088 55.799 612.51 55.799 608.5C55.799 604.49 54.903 600.912 53.111 597.765C51.3808 594.619 48.9708 592.182 45.8812 590.454C42.7916 588.665 39.3312 587.771 35.5 587.771C31.6688 587.771 28.2084 588.665 25.1188 590.454C22.0292 592.182 19.5883 594.619 17.7963 597.765C16.0661 600.912 15.201 604.49 15.201 608.5C15.201 612.51 16.0661 616.088 17.7963 619.235C19.5883 622.381 22.0292 624.849 25.1188 626.638C28.2084 628.366 31.6688 629.229 35.5 629.229Z" fill="black"/>
</svg>
