<svg width="452" height="2734" viewBox="0 0 452 2734" fill="none" xmlns="http://www.w3.org/2000/svg">
<path d="M29.5 181.5L228 0L452 112.5L330 202.5L452 318.5L330 390.5L452 492.5L330 580.5L452 700.5L327.5 793L415 946.5L276.5 1049L167.5 949L226.5 904L90 780.5L224 688.5L90 558.5L210 482.5L74 380.5L234 271.5L29.5 181.5Z" fill="#F17110"/>
<path d="M53 1036.5L341 816.5L415 946.5L293 1036.5L415 1152.5L293 1224.5L415 1326.5L293 1414.5L415 1534.5L290.5 1627L378 1780.5L239.5 1883L130.5 1783L189.5 1738L53 1614.5L187 1522.5L53 1392.5L173 1316.5L37 1214.5L173 1132.5L53 1036.5Z" fill="#F17110"/>
<path d="M16 1870.5L304 1650.5L378 1780.5L256 1870.5L378 1986.5L256 2058.5L378 2160.5L256 2248.5L378 2368.5L253.5 2461L423.5 2532L236 2733.5L29.5 2656.5L192.5 2545L16 2448.5L150 2356.5L16 2226.5L136 2150.5L0 2048.5L136 1966.5L16 1870.5Z" fill="#F17110"/>
</svg>
