<svg width="114" height="184" viewBox="0 0 114 184" fill="none" xmlns="http://www.w3.org/2000/svg">
<path d="M52.8236 29.8063C52.8236 29.8063 52.9643 26.9234 56.7353 26.4956C60.5063 26.0677 60.5756 24.8355 60.5756 24.8355C60.5756 24.8355 60.5746 23.1409 56.6984 23.1387C52.8221 23.1365 52.8189 21.5043 52.8189 21.5043C52.8189 21.5043 52.8902 19.7496 56.6965 19.7517C60.5027 19.7539 60.5717 18.1541 60.5717 18.1541C60.5717 18.1541 60.5708 16.4919 56.6946 16.4573C52.8183 16.4227 52.815 14.7627 52.815 14.7627C52.815 14.7627 52.8141 13.1305 56.6927 13.1027C60.5711 13.0748 60.5679 11.4426 60.5679 11.4426C60.5679 11.4426 60.5669 9.72955 56.6908 9.74583C52.9592 9.76219 52.8112 8.08136 52.8112 8.08136C52.8112 8.08136 52.8103 6.4191 56.6889 6.42131C60.5673 6.42353 60.5639 4.39136 60.5639 4.39136C60.5639 4.39136 60.5631 3.03659 56.6869 3.06674C52.8107 3.0969 52.8072 1 52.8072 1" stroke="#F8C615" stroke-width="2" stroke-miterlimit="10"/>
<path d="M52.8411 58.62C52.8411 58.62 52.9817 55.7372 56.7527 55.3093C60.5237 54.8815 60.593 53.6493 60.593 53.6493C60.593 53.6493 60.592 51.9547 56.7157 51.9525C52.8395 51.9503 52.8363 50.318 52.8363 50.318C52.8363 50.318 52.9076 48.5633 56.7138 48.5655C60.5201 48.5677 60.5892 46.9679 60.5892 46.9679C60.5892 46.9679 60.5882 45.3056 56.7119 45.2711C52.8357 45.2365 52.8325 43.5765 52.8325 43.5765C52.8325 43.5765 52.8315 41.9443 56.71 41.9165C60.5886 41.8886 60.5853 40.2564 60.5853 40.2564C60.5853 40.2564 60.5844 38.5433 56.7081 38.5596C52.9765 38.576 52.8286 36.8951 52.8286 36.8951C52.8286 36.8951 52.8277 35.2328 56.7062 35.235C60.5848 35.2372 60.5813 33.1935 60.5813 33.1935C60.5813 33.1935 60.5805 31.8388 56.7043 31.869C52.8281 31.8991 52.8246 29.8022 52.8246 29.8022" stroke="#F8C615" stroke-width="2" stroke-miterlimit="10"/>
<path d="M52.8575 87.4211C52.8575 87.4211 52.9982 84.5383 56.7692 84.1104C60.5402 83.6825 60.6095 82.4411 60.6095 82.4411C60.6095 82.4411 60.6085 80.7465 56.7322 80.7443C52.856 80.742 52.8528 79.1098 52.8528 79.1098C52.8528 79.1098 52.9241 77.3551 56.7303 77.3573C60.5366 77.3595 60.6057 75.7597 60.6057 75.7597C60.6057 75.7597 60.6047 74.0974 56.7284 74.0629C52.8522 74.0282 52.8489 72.3683 52.8489 72.3683C52.8489 72.3683 52.848 70.7361 56.7265 70.7083C60.6051 70.6804 60.6018 69.0482 60.6018 69.0482C60.6018 69.0482 60.6008 67.3351 56.7246 67.3514C52.993 67.3677 52.8451 65.6869 52.8451 65.6869C52.8451 65.6869 52.8442 64.0247 56.7227 64.0269C60.6013 64.0291 60.5978 61.9969 60.5978 61.9969C60.5978 61.9969 60.597 60.6422 56.7207 60.6723C52.8446 60.7025 52.8411 58.624 52.8411 58.624" stroke="#F8C615" stroke-width="2" stroke-miterlimit="10"/>
<path d="M52.873 116.229C52.873 116.229 53.0137 113.344 56.7847 112.916C60.5557 112.488 60.625 111.256 60.625 111.256C60.625 111.256 60.624 109.561 56.7478 109.559C52.8715 109.557 52.8683 107.925 52.8683 107.925C52.8683 107.925 52.9396 106.17 56.7459 106.172C60.5521 106.174 60.6212 104.575 60.6212 104.575C60.6212 104.575 60.6202 102.912 56.744 102.88C52.8677 102.848 52.8644 101.183 52.8644 101.183C52.8644 101.183 52.8635 99.551 56.7421 99.5231C60.6206 99.4953 60.6173 97.8631 60.6173 97.8631C60.6173 97.8631 60.6163 96.15 56.7401 96.1663C53.0085 96.1826 52.8606 94.5017 52.8606 94.5017C52.8606 94.5017 52.8596 92.8395 56.7382 92.8417C60.6167 92.8439 60.6133 90.8118 60.6133 90.8118C60.6133 90.8118 60.6125 89.457 56.7363 89.4872C52.86 89.5172 52.8565 87.4204 52.8565 87.4204" stroke="#F8C615" stroke-width="2" stroke-miterlimit="10"/>
<path d="M28.1806 118.732L45.3434 89.6905L28.1467 59.5521L45.3095 30.5105L28.1135 1.44702" stroke="#F8C615" stroke-width="4" stroke-miterlimit="10"/>
<path d="M86.2846 118.535L69.0886 89.4736L86.2508 59.3547L69.0548 30.2935L86.2176 1.24968" stroke="#F8C615" stroke-width="4" stroke-miterlimit="10"/>
<path d="M0 1.20032L11.0829 1.20665L29.5968 30.539L18.5116 30.5327L0 1.20032Z" fill="#F8C615"/>
<path d="M29.5968 30.5391L18.5116 30.5328L0.033549 59.844L11.1165 59.8504L29.5968 30.5391Z" fill="#F8C615"/>
<path d="M0.0335388 59.8461L11.1165 59.8524L29.6303 89.1825L18.5452 89.1762L0.0335388 59.8461Z" fill="#F8C615"/>
<path d="M29.6313 89.181L18.5461 89.1746L0.0680436 118.486L11.151 118.492L29.6313 89.181Z" fill="#F8C615"/>
<path d="M113.14 1.03447L102.057 1.02814L83.5793 30.3395L94.6623 30.3458L113.14 1.03447Z" fill="#F8C615"/>
<path d="M83.5784 30.3414L94.6612 30.3478L113.173 59.6802L102.09 59.6738L83.5784 30.3414Z" fill="#F8C615"/>
<path d="M113.173 59.6763L102.09 59.67L83.6119 88.979L94.6948 88.9853L113.173 59.6763Z" fill="#F8C615"/>
<path d="M83.6119 88.9833L94.6948 88.9896L113.206 118.322L102.123 118.316L83.6119 88.9833Z" fill="#F8C615"/>
<path d="M6.13812 130L107.382 130.058C107.382 130.058 107.085 178.973 56.7878 178.995C6.49033 179.018 6.13812 130 6.13812 130Z" stroke="#F8C615" stroke-width="9" stroke-miterlimit="10"/>
</svg>
