<svg width="645" height="98" viewBox="0 0 645 98" fill="none" xmlns="http://www.w3.org/2000/svg">
<rect x="0.00390625" width="644.412" height="98" fill="black"/>
<rect x="0.00390625" width="214.804" height="98" fill="#F8C615"/>
<path d="M117.444 22V75H107.587V30.2529H96.3647V22H117.444Z" fill="white"/>
<rect x="214.808" width="214.804" height="98" fill="#F17110"/>
<path d="M342.285 66.6338V75H303.177V68.3831L324.247 48.3042C326.621 46.0225 328.213 44.0451 329.021 42.3718C329.88 40.6479 330.31 38.9493 330.31 37.2761C330.31 34.7916 329.476 32.8901 327.809 31.5718C326.141 30.2535 323.691 29.5944 320.457 29.5944C315.051 29.5944 310.908 31.4451 308.027 35.1465L301.131 29.8225C303.202 27.0338 305.981 24.8789 309.468 23.3577C313.004 21.7859 316.945 21 321.291 21C327.051 21 331.649 22.369 335.085 25.107C338.52 27.8451 340.238 31.5718 340.238 36.2873C340.238 39.1775 339.632 41.8901 338.419 44.4254C337.207 46.9606 334.882 49.8507 331.447 53.0958L317.274 66.6338H342.285Z" fill="white"/>
<rect x="429.612" width="214.804" height="98" fill="#4B59DF"/>
<path d="M540.919 43.9803C545.847 44.5887 549.607 46.262 552.198 49C554.789 51.738 556.085 55.1606 556.085 59.2676C556.085 62.3606 555.298 65.1746 553.723 67.7099C552.148 70.2451 549.76 72.2732 546.559 73.7944C543.409 75.2648 539.547 76 534.975 76C531.164 76 527.48 75.4676 523.924 74.4028C520.418 73.2873 517.421 71.7662 514.931 69.8394L519.199 62.1577C521.13 63.7803 523.467 65.0732 526.21 66.0366C529.005 66.9493 531.875 67.4056 534.822 67.4056C538.328 67.4056 541.071 66.6958 543.053 65.2761C545.085 63.8056 546.101 61.8282 546.101 59.3437C546.101 56.8592 545.136 54.9324 543.205 53.5634C541.326 52.1437 538.429 51.4338 534.517 51.4338H529.64V44.6648L541.757 30.2901H517.522V22H553.875V28.6169L540.919 43.9803Z" fill="white"/>
</svg>
